<svg xmlns="http://www.w3.org/2000/svg" width="1200" height="1200" viewBox="0 0 1200 1200">
  <defs>
    <marker id="arrow" markerWidth="10" markerHeight="10" refX="5" refY="5" orient="auto-start-reverse"><path d="M0,0 L10,5 L0,10 z" fill="#243447"/></marker>
    <style>.shape{fill:#e8f1f8;stroke:#13293d;stroke-width:5}.dim{fill:none;stroke:#243447;stroke-width:3;marker-start:url(#arrow);marker-end:url(#arrow)}.ext{stroke:#7b8794;stroke-width:2}.center{stroke:#c43d3d;stroke-width:2;stroke-dasharray:12 8}.t{font-family:Arial,sans-serif;fill:#13293d;font-size:30px}.title{font-size:38px;font-weight:bold}.note{font-size:25px}</style>
  </defs>
  <rect width="1200" height="900" fill="white"/>
  <text x="60" y="70" class="t title">L-BRACKET — FRONT VIEW (XZ)</text>
  <text x="60" y="112" class="t note">ALL DIMENSIONS mm · SCALE 4:1 · SAME PART / STATE / SCALE</text>
  <rect x="220" y="190" width="500" height="480" class="shape"/>
  <rect x="220" y="190" width="80" height="480" fill="#c9d9e6" stroke="#13293d" stroke-width="3"/>
  <circle cx="440" cy="526" r="30" fill="white" stroke="#13293d" stroke-width="5"/>
  <circle cx="580" cy="334" r="30" fill="white" stroke="#13293d" stroke-width="5"/>
  <path d="M400 526 H480 M440 486 V566 M540 334 H620 M580 294 V374" class="center" fill="none"/>
  <line x1="220" y1="710" x2="220" y2="770" class="ext"/><line x1="720" y1="710" x2="720" y2="770" class="ext"/>
  <line x1="220" y1="750" x2="720" y2="750" class="dim"/><text x="445" y="738" class="t">50</text>
  <line x1="760" y1="190" x2="830" y2="190" class="ext"/><line x1="760" y1="670" x2="830" y2="670" class="ext"/>
  <line x1="810" y1="190" x2="810" y2="670" class="dim"/><text x="830" y="442" class="t">60</text>
  <line x1="220" y1="150" x2="300" y2="150" class="dim"/><text x="238" y="138" class="t">8</text>
  <line x1="220" y1="680" x2="440" y2="680" class="dim"/><text x="300" y="716" class="t">X1 = 22</text>
  <line x1="220" y1="160" x2="580" y2="160" class="dim"/><text x="365" y="148" class="t">X2 = 36</text>
  <line x1="755" y1="670" x2="755" y2="526" class="dim"/><text x="770" y="610" class="t">Z1 = 18</text>
  <line x1="865" y1="670" x2="865" y2="334" class="dim"/><text x="880" y="515" class="t">Z2 = 42</text>
  <path d="M660 260 L595 315" stroke="#243447" stroke-width="3" marker-end="url(#arrow)"/><text x="670" y="252" class="t">2 × Ø6 THRU</text>
  <text x="60" y="815" class="t note">HOLE CENTERS FROM LOWER-LEFT ORIGIN: (X1,Z1)=(22,18) · (X2,Z2)=(36,42)</text>
  <text x="60" y="855" class="t note">View index 0 · front · horizontal leg mounting holes</text>
</svg>
